<?xml version="1.0" encoding="iso-8859-1"?>
<!-- Generator: Adobe Illustrator 19.0.0, SVG Export Plug-In . SVG Version: 6.00 Build 0)  -->
<svg version="1.1" id="Layer_1" xmlns="http://www.w3.org/2000/svg" xmlns:xlink="http://www.w3.org/1999/xlink" x="0px" y="0px"
	 viewBox="0 0 512 512" style="enable-background:new 0 0 512 512;" xml:space="preserve">
<g>
	<g>
		<g>
			<path d="M446.512,0H65.488C29.378,0,0,29.378,0,65.488v381.023C0,482.622,29.378,512,65.488,512h381.023
				c36.11,0,65.488-29.378,65.488-65.488V65.488C512,29.378,482.622,0,446.512,0z M128.089,35.721h26.701v119.07h-26.701V35.721z
				 M256,154.791c55.807,0,101.209,45.402,101.209,101.209S311.807,357.209,256,357.209S154.791,311.807,154.791,256
				S200.193,154.791,256,154.791z M35.721,65.488c0-16.414,13.354-29.767,29.767-29.767h26.88v119.07H35.721V65.488z
				 M476.279,446.512c0,16.414-13.354,29.767-29.767,29.767H65.488c-16.414,0-29.767-13.354-29.767-29.767v-256h100.053
				C125.128,209.977,119.07,232.293,119.07,256c0,75.503,61.427,136.93,136.93,136.93S392.93,331.503,392.93,256
				c0-23.707-6.058-46.023-16.704-65.488h100.053V446.512z M476.279,154.791H348.135C323.792,132.612,291.448,119.07,256,119.07
				c-23.707,0-46.023,6.058-65.488,16.704V35.721h256c16.414,0,29.767,13.354,29.767,29.767V154.791z"/>
			<path d="M256,333.395c42.676,0,77.395-34.72,77.395-77.395s-34.72-77.395-77.395-77.395s-77.395,34.72-77.395,77.395
				S213.324,333.395,256,333.395z M256,214.326c22.979,0,41.674,18.695,41.674,41.674S278.979,297.674,256,297.674
				S214.326,278.979,214.326,256S233.021,214.326,256,214.326z"/>
			<path d="M428.651,63.258h-47.628c-9.864,0-17.86,7.997-17.86,17.86v47.628c0,9.864,7.997,17.86,17.86,17.86h47.628
				c9.864,0,17.86-7.997,17.86-17.86V81.119C446.512,71.255,438.515,63.258,428.651,63.258z M410.791,110.886h-11.907V98.979h11.907
				V110.886z"/>
		</g>
	</g>
</g>
<g>
</g>
<g>
</g>
<g>
</g>
<g>
</g>
<g>
</g>
<g>
</g>
<g>
</g>
<g>
</g>
<g>
</g>
<g>
</g>
<g>
</g>
<g>
</g>
<g>
</g>
<g>
</g>
<g>
</g>
</svg>
